<svg xmlns="http://www.w3.org/2000/svg" viewBox="0 0 480 390" role="img" aria-labelledby="title"><title id="title">Karakter tangan HANDSIGN, contoh bentuk A</title><rect width="480" height="390" rx="24" fill="#f0fbf5"/><ellipse cx="240" cy="349" rx="125" ry="14" fill="#d8eade"/><path d="M393.00 254.16L359.28 254.24" stroke="#9c623f" stroke-width="28.14788" stroke-linecap="round"/><path d="M393.00 254.16L359.28 254.24" stroke="#ffd7ad" stroke-width="26.14788" stroke-linecap="round"/><path d="M87.00 239.29L126.70 248.43" stroke="#9c623f" stroke-width="30.51956" stroke-linecap="round"/><path d="M87.00 239.29L126.70 248.43" stroke="#ffc391" stroke-width="28.51956" stroke-linecap="round"/><polygon points="87.00,239.29 126.70,248.43 182.78,187.61 167.32,176.65 147.05,168.38 124.62,161.44" fill="#ffc391" stroke="#9c623f" stroke-width="2" stroke-linejoin="round"/><path d="M182.78 187.61L213.16 151.09" stroke="#9c623f" stroke-width="30.51956" stroke-linecap="round"/><path d="M182.78 187.61L213.16 151.09" stroke="#ffc391" stroke-width="28.51956" stroke-linecap="round"/><polygon points="393.00,254.16 359.28,254.24 318.16,189.52 334.19,181.62 353.38,176.07 375.63,172.64" fill="#ffd7ad" stroke="#9c623f" stroke-width="2" stroke-linejoin="round"/><path d="M359.28 254.24L317.26 238.60" stroke="#9c623f" stroke-width="28.14788" stroke-linecap="round"/><path d="M359.28 254.24L317.26 238.60" stroke="#ffd7ad" stroke-width="26.14788" stroke-linecap="round"/><path d="M318.16 189.52L287.41 150.83" stroke="#9c623f" stroke-width="28.14788" stroke-linecap="round"/><path d="M318.16 189.52L287.41 150.83" stroke="#ffd7ad" stroke-width="26.14788" stroke-linecap="round"/><path d="M126.70 248.43L172.34 242.20" stroke="#9c623f" stroke-width="30.51956" stroke-linecap="round"/><path d="M126.70 248.43L172.34 242.20" stroke="#ffc391" stroke-width="28.51956" stroke-linecap="round"/><path d="M167.32 176.65L190.36 155.86" stroke="#9c623f" stroke-width="30.51956" stroke-linecap="round"/><path d="M167.32 176.65L190.36 155.86" stroke="#ffc391" stroke-width="28.51956" stroke-linecap="round"/><rect x="70.00" y="241.29" width="34" height="24" rx="9" fill="#007857"/><circle cx="81.00" cy="250.29" r="2.5" fill="white"/><circle cx="93.00" cy="250.29" r="2.5" fill="white"/><path d="M82.00 256.29q5 4 10 0" fill="none" stroke="white" stroke-width="2"/><rect x="376.00" y="256.16" width="34" height="24" rx="9" fill="#007857"/><circle cx="387.00" cy="265.16" r="2.5" fill="white"/><circle cx="399.00" cy="265.16" r="2.5" fill="white"/><path d="M388.00 271.16q5 4 10 0" fill="none" stroke="white" stroke-width="2"/><path d="M147.05 168.38L170.53 144.05" stroke="#9c623f" stroke-width="30.51956" stroke-linecap="round"/><path d="M147.05 168.38L170.53 144.05" stroke="#ffc391" stroke-width="28.51956" stroke-linecap="round"/><path d="M317.26 238.60L282.49 234.20" stroke="#9c623f" stroke-width="24.225698" stroke-linecap="round"/><path d="M317.26 238.60L282.49 234.20" stroke="#ffd7ad" stroke-width="22.225698" stroke-linecap="round"/><path d="M172.34 242.20L207.58 237.05" stroke="#9c623f" stroke-width="26.241625999999997" stroke-linecap="round"/><path d="M172.34 242.20L207.58 237.05" stroke="#ffc391" stroke-width="24.241625999999997" stroke-linecap="round"/><path d="M334.19 181.62L307.92 169.99" stroke="#9c623f" stroke-width="28.14788" stroke-linecap="round"/><path d="M334.19 181.62L307.92 169.99" stroke="#ffd7ad" stroke-width="26.14788" stroke-linecap="round"/><path d="M335.82 189.73L350.39 201.15" stroke="#9c623f" stroke-width="24.225698" stroke-linecap="round"/><path d="M335.82 189.73L350.39 201.15" stroke="#ffd7ad" stroke-width="22.225698" stroke-linecap="round"/><path d="M213.16 151.09L231.10 129.65" stroke="#9c623f" stroke-width="26.241625999999997" stroke-linecap="round"/><path d="M213.16 151.09L231.10 129.65" stroke="#ffc391" stroke-width="24.241625999999997" stroke-linecap="round"/><path d="M124.62 161.44L144.10 137.69" stroke="#9c623f" stroke-width="30.51956" stroke-linecap="round"/><path d="M124.62 161.44L144.10 137.69" stroke="#ffc391" stroke-width="28.51956" stroke-linecap="round"/><path d="M287.41 150.83L269.68 132.02" stroke="#9c623f" stroke-width="24.225698" stroke-linecap="round"/><path d="M287.41 150.83L269.68 132.02" stroke="#ffd7ad" stroke-width="22.225698" stroke-linecap="round"/><path d="M352.06 172.98L360.16 186.58" stroke="#9c623f" stroke-width="24.225698" stroke-linecap="round"/><path d="M352.06 172.98L360.16 186.58" stroke="#ffd7ad" stroke-width="22.225698" stroke-linecap="round"/><path d="M353.38 176.07L327.98 161.62" stroke="#9c623f" stroke-width="28.14788" stroke-linecap="round"/><path d="M353.38 176.07L327.98 161.62" stroke="#ffd7ad" stroke-width="26.14788" stroke-linecap="round"/><path d="M162.86 167.35L152.08 182.05" stroke="#9c623f" stroke-width="26.241625999999997" stroke-linecap="round"/><path d="M162.86 167.35L152.08 182.05" stroke="#ffc391" stroke-width="24.241625999999997" stroke-linecap="round"/><path d="M145.44 152.29L141.26 164.23" stroke="#9c623f" stroke-width="26.241625999999997" stroke-linecap="round"/><path d="M145.44 152.29L141.26 164.23" stroke="#ffc391" stroke-width="24.241625999999997" stroke-linecap="round"/><path d="M207.58 237.05L233.43 235.87" stroke="#9c623f" stroke-width="26.241625999999997" stroke-linecap="round"/><path d="M207.58 237.05L233.43 235.87" stroke="#ffc391" stroke-width="24.241625999999997" stroke-linecap="round"/><path d="M170.53 144.05L162.86 167.35" stroke="#9c623f" stroke-width="26.241625999999997" stroke-linecap="round"/><path d="M170.53 144.05L162.86 167.35" stroke="#ffc391" stroke-width="24.241625999999997" stroke-linecap="round"/><path d="M144.10 137.69L145.44 152.29" stroke="#9c623f" stroke-width="26.241625999999997" stroke-linecap="round"/><path d="M144.10 137.69L145.44 152.29" stroke="#ffc391" stroke-width="24.241625999999997" stroke-linecap="round"/><path d="M269.68 132.02L256.67 112.97" stroke="#9c623f" stroke-width="24.225698" stroke-linecap="round"/><path d="M269.68 132.02L256.67 112.97" stroke="#ffd7ad" stroke-width="22.225698" stroke-linecap="round"/><path d="M190.36 155.86L181.93 180.80" stroke="#9c623f" stroke-width="26.241625999999997" stroke-linecap="round"/><path d="M190.36 155.86L181.93 180.80" stroke="#ffc391" stroke-width="24.241625999999997" stroke-linecap="round"/><path d="M375.63 172.64L354.56 152.50" stroke="#9c623f" stroke-width="28.14788" stroke-linecap="round"/><path d="M375.63 172.64L354.56 152.50" stroke="#ffd7ad" stroke-width="26.14788" stroke-linecap="round"/><path d="M282.49 234.20L257.97 239.32" stroke="#9c623f" stroke-width="24.225698" stroke-linecap="round"/><path d="M282.49 234.20L257.97 239.32" stroke="#ffd7ad" stroke-width="22.225698" stroke-linecap="round"/><path d="M354.56 152.50L352.06 172.98" stroke="#9c623f" stroke-width="24.225698" stroke-linecap="round"/><path d="M354.56 152.50L352.06 172.98" stroke="#ffd7ad" stroke-width="22.225698" stroke-linecap="round"/><path d="M231.10 129.65L245.57 108.76" stroke="#9c623f" stroke-width="26.241625999999997" stroke-linecap="round"/><path d="M231.10 129.65L245.57 108.76" stroke="#ffc391" stroke-width="24.241625999999997" stroke-linecap="round"/><path d="M327.98 161.62L335.82 189.73" stroke="#9c623f" stroke-width="24.225698" stroke-linecap="round"/><path d="M327.98 161.62L335.82 189.73" stroke="#ffd7ad" stroke-width="22.225698" stroke-linecap="round"/><path d="M318.70 200.95L334.65 213.02" stroke="#9c623f" stroke-width="24.225698" stroke-linecap="round"/><path d="M318.70 200.95L334.65 213.02" stroke="#ffd7ad" stroke-width="22.225698" stroke-linecap="round"/><path d="M307.92 169.99L318.70 200.95" stroke="#9c623f" stroke-width="24.225698" stroke-linecap="round"/><path d="M307.92 169.99L318.70 200.95" stroke="#ffd7ad" stroke-width="22.225698" stroke-linecap="round"/><path d="M181.93 180.80L171.93 196.80" stroke="#9c623f" stroke-width="26.241625999999997" stroke-linecap="round"/><path d="M181.93 180.80L171.93 196.80" stroke="#ffc391" stroke-width="24.241625999999997" stroke-linecap="round"/><text x="24" y="37" font-family="sans-serif" font-size="24" font-weight="bold" fill="#075d48">A</text><text x="240" y="378" text-anchor="middle" font-family="sans-serif" font-size="13" fill="#375a4b">Contoh bentuk • karakter orisinal HANDSIGN</text></svg>