<svg xmlns="http://www.w3.org/2000/svg" viewBox="0 0 480 390" role="img" aria-labelledby="title"><title id="title">Karakter tangan HANDSIGN, contoh bentuk E</title><rect width="480" height="390" rx="24" fill="#f0fbf5"/><ellipse cx="240" cy="349" rx="125" ry="14" fill="#d8eade"/><path d="M87.00 212.39L126.37 151.42" stroke="#9c623f" stroke-width="38.3969" stroke-linecap="round"/><path d="M87.00 212.39L126.37 151.42" stroke="#ffc391" stroke-width="36.3969" stroke-linecap="round"/><path d="M126.37 151.42L188.83 139.10" stroke="#9c623f" stroke-width="38.3969" stroke-linecap="round"/><path d="M126.37 151.42L188.83 139.10" stroke="#ffc391" stroke-width="36.3969" stroke-linecap="round"/><path d="M234.84 162.84L258.96 189.07" stroke="#9c623f" stroke-width="32.937365" stroke-linecap="round"/><path d="M234.84 162.84L258.96 189.07" stroke="#ffc391" stroke-width="30.937365" stroke-linecap="round"/><path d="M188.83 139.10L234.84 162.84" stroke="#9c623f" stroke-width="32.937365" stroke-linecap="round"/><path d="M188.83 139.10L234.84 162.84" stroke="#ffc391" stroke-width="30.937365" stroke-linecap="round"/><rect x="70.00" y="214.39" width="34" height="24" rx="9" fill="#007857"/><circle cx="81.00" cy="223.39" r="2.5" fill="white"/><circle cx="93.00" cy="223.39" r="2.5" fill="white"/><path d="M82.00 229.39q5 4 10 0" fill="none" stroke="white" stroke-width="2"/><polygon points="87.00,212.39 126.37,151.42 212.72,142.08 214.38,186.49 211.99,224.55 206.08,254.46" fill="#ffc391" stroke="#9c623f" stroke-width="2" stroke-linejoin="round"/><path d="M206.08 254.46L254.45 227.82" stroke="#9c623f" stroke-width="38.3969" stroke-linecap="round"/><path d="M206.08 254.46L254.45 227.82" stroke="#ffc391" stroke-width="36.3969" stroke-linecap="round"/><path d="M212.72 142.08L290.40 123.60" stroke="#9c623f" stroke-width="38.3969" stroke-linecap="round"/><path d="M212.72 142.08L290.40 123.60" stroke="#ffc391" stroke-width="36.3969" stroke-linecap="round"/><path d="M214.38 186.49L299.06 174.09" stroke="#9c623f" stroke-width="38.3969" stroke-linecap="round"/><path d="M214.38 186.49L299.06 174.09" stroke="#ffc391" stroke-width="36.3969" stroke-linecap="round"/><path d="M211.99 224.55L291.63 221.70" stroke="#9c623f" stroke-width="38.3969" stroke-linecap="round"/><path d="M211.99 224.55L291.63 221.70" stroke="#ffc391" stroke-width="36.3969" stroke-linecap="round"/><path d="M254.45 227.82L260.45 206.10" stroke="#9c623f" stroke-width="32.937365" stroke-linecap="round"/><path d="M254.45 227.82L260.45 206.10" stroke="#ffc391" stroke-width="30.937365" stroke-linecap="round"/><path d="M290.40 123.60L337.81 113.54" stroke="#9c623f" stroke-width="32.937365" stroke-linecap="round"/><path d="M290.40 123.60L337.81 113.54" stroke="#ffc391" stroke-width="30.937365" stroke-linecap="round"/><path d="M260.45 206.10L255.33 194.42" stroke="#9c623f" stroke-width="32.937365" stroke-linecap="round"/><path d="M260.45 206.10L255.33 194.42" stroke="#ffc391" stroke-width="30.937365" stroke-linecap="round"/><path d="M337.81 113.54L372.90 108.54" stroke="#9c623f" stroke-width="32.937365" stroke-linecap="round"/><path d="M337.81 113.54L372.90 108.54" stroke="#ffc391" stroke-width="30.937365" stroke-linecap="round"/><path d="M299.06 174.09L351.84 168.18" stroke="#9c623f" stroke-width="32.937365" stroke-linecap="round"/><path d="M299.06 174.09L351.84 168.18" stroke="#ffc391" stroke-width="30.937365" stroke-linecap="round"/><path d="M351.84 168.18L393.00 167.26" stroke="#9c623f" stroke-width="32.937365" stroke-linecap="round"/><path d="M351.84 168.18L393.00 167.26" stroke="#ffc391" stroke-width="30.937365" stroke-linecap="round"/><path d="M291.63 221.70L338.05 219.79" stroke="#9c623f" stroke-width="32.937365" stroke-linecap="round"/><path d="M291.63 221.70L338.05 219.79" stroke="#ffc391" stroke-width="30.937365" stroke-linecap="round"/><path d="M338.05 219.79L370.06 220.95" stroke="#9c623f" stroke-width="32.937365" stroke-linecap="round"/><path d="M338.05 219.79L370.06 220.95" stroke="#ffc391" stroke-width="30.937365" stroke-linecap="round"/><text x="24" y="37" font-family="sans-serif" font-size="24" font-weight="bold" fill="#075d48">E</text><text x="240" y="378" text-anchor="middle" font-family="sans-serif" font-size="13" fill="#375a4b">Contoh bentuk • karakter orisinal HANDSIGN</text></svg>