<svg xmlns="http://www.w3.org/2000/svg" viewBox="0 0 480 390" role="img" aria-labelledby="title"><title id="title">Karakter tangan HANDSIGN, contoh bentuk F</title><rect width="480" height="390" rx="24" fill="#f0fbf5"/><ellipse cx="240" cy="349" rx="125" ry="14" fill="#d8eade"/><path d="M354.14 312.00L297.47 280.09" stroke="#9c623f" stroke-width="37.624700000000004" stroke-linecap="round"/><path d="M354.14 312.00L297.47 280.09" stroke="#ffd7ad" stroke-width="35.624700000000004" stroke-linecap="round"/><path d="M105.34 122.81L142.52 63.69" stroke="#9c623f" stroke-width="38.103500000000004" stroke-linecap="round"/><path d="M105.34 122.81L142.52 63.69" stroke="#ffc391" stroke-width="36.103500000000004" stroke-linecap="round"/><path d="M142.52 63.69L198.22 52.64" stroke="#9c623f" stroke-width="38.103500000000004" stroke-linecap="round"/><path d="M142.52 63.69L198.22 52.64" stroke="#ffc391" stroke-width="36.103500000000004" stroke-linecap="round"/><path d="M297.47 280.09L257.48 251.44" stroke="#9c623f" stroke-width="37.624700000000004" stroke-linecap="round"/><path d="M297.47 280.09L257.48 251.44" stroke="#ffd7ad" stroke-width="35.624700000000004" stroke-linecap="round"/><path d="M198.22 52.64L231.70 78.25" stroke="#9c623f" stroke-width="32.687975" stroke-linecap="round"/><path d="M198.22 52.64L231.70 78.25" stroke="#ffc391" stroke-width="30.687975" stroke-linecap="round"/><path d="M231.70 78.25L240.69 106.03" stroke="#9c623f" stroke-width="32.687975" stroke-linecap="round"/><path d="M231.70 78.25L240.69 106.03" stroke="#ffc391" stroke-width="30.687975" stroke-linecap="round"/><rect x="88.34" y="124.81" width="34" height="24" rx="9" fill="#007857"/><circle cx="99.34" cy="133.81" r="2.5" fill="white"/><circle cx="111.34" cy="133.81" r="2.5" fill="white"/><path d="M100.34 139.81q5 4 10 0" fill="none" stroke="white" stroke-width="2"/><rect x="337.14" y="314.00" width="34" height="24" rx="9" fill="#007857"/><circle cx="348.14" cy="323.00" r="2.5" fill="white"/><circle cx="360.14" cy="323.00" r="2.5" fill="white"/><path d="M349.14 329.00q5 4 10 0" fill="none" stroke="white" stroke-width="2"/><path d="M219.98 129.89L204.31 130.21" stroke="#9c623f" stroke-width="32.687975" stroke-linecap="round"/><path d="M219.98 129.89L204.31 130.21" stroke="#ffc391" stroke-width="30.687975" stroke-linecap="round"/><polygon points="105.34,122.81 142.52,63.69 227.40,57.54 232.39,100.78 229.08,135.74 221.57,161.41" fill="#ffc391" stroke="#9c623f" stroke-width="2" stroke-linejoin="round"/><path d="M233.63 137.11L219.98 129.89" stroke="#9c623f" stroke-width="32.687975" stroke-linecap="round"/><path d="M233.63 137.11L219.98 129.89" stroke="#ffc391" stroke-width="30.687975" stroke-linecap="round"/><path d="M221.57 161.41L233.63 137.11" stroke="#9c623f" stroke-width="38.103500000000004" stroke-linecap="round"/><path d="M221.57 161.41L233.63 137.11" stroke="#ffc391" stroke-width="36.103500000000004" stroke-linecap="round"/><path d="M241.97 112.63L221.11 109.40" stroke="#9c623f" stroke-width="32.687975" stroke-linecap="round"/><path d="M241.97 112.63L221.11 109.40" stroke="#ffc391" stroke-width="30.687975" stroke-linecap="round"/><path d="M229.08 135.74L258.18 122.75" stroke="#9c623f" stroke-width="38.103500000000004" stroke-linecap="round"/><path d="M229.08 135.74L258.18 122.75" stroke="#ffc391" stroke-width="36.103500000000004" stroke-linecap="round"/><path d="M258.18 122.75L241.97 112.63" stroke="#9c623f" stroke-width="32.687975" stroke-linecap="round"/><path d="M258.18 122.75L241.97 112.63" stroke="#ffc391" stroke-width="30.687975" stroke-linecap="round"/><path d="M232.39 100.78L299.11 110.15" stroke="#9c623f" stroke-width="38.103500000000004" stroke-linecap="round"/><path d="M232.39 100.78L299.11 110.15" stroke="#ffc391" stroke-width="36.103500000000004" stroke-linecap="round"/><path d="M257.48 251.44L218.01 239.12" stroke="#9c623f" stroke-width="32.280995000000004" stroke-linecap="round"/><path d="M257.48 251.44L218.01 239.12" stroke="#ffd7ad" stroke-width="30.280995000000004" stroke-linecap="round"/><path d="M227.40 57.54L302.29 51.00" stroke="#9c623f" stroke-width="38.103500000000004" stroke-linecap="round"/><path d="M227.40 57.54L302.29 51.00" stroke="#ffc391" stroke-width="36.103500000000004" stroke-linecap="round"/><path d="M299.11 110.15L340.86 115.02" stroke="#9c623f" stroke-width="32.687975" stroke-linecap="round"/><path d="M299.11 110.15L340.86 115.02" stroke="#ffc391" stroke-width="30.687975" stroke-linecap="round"/><path d="M340.86 115.02L373.57 121.70" stroke="#9c623f" stroke-width="32.687975" stroke-linecap="round"/><path d="M340.86 115.02L373.57 121.70" stroke="#ffc391" stroke-width="30.687975" stroke-linecap="round"/><polygon points="354.14,312.00 297.47,280.09 282.72,179.49 297.94,197.85 304.56,230.02 305.30,263.99" fill="#ffd7ad" stroke="#9c623f" stroke-width="2" stroke-linejoin="round"/><path d="M282.72 179.49L271.70 123.53" stroke="#9c623f" stroke-width="37.624700000000004" stroke-linecap="round"/><path d="M282.72 179.49L271.70 123.53" stroke="#ffd7ad" stroke-width="35.624700000000004" stroke-linecap="round"/><path d="M302.29 51.00L343.92 51.94" stroke="#9c623f" stroke-width="32.687975" stroke-linecap="round"/><path d="M302.29 51.00L343.92 51.94" stroke="#ffc391" stroke-width="30.687975" stroke-linecap="round"/><path d="M343.92 51.94L374.66 54.67" stroke="#9c623f" stroke-width="32.687975" stroke-linecap="round"/><path d="M343.92 51.94L374.66 54.67" stroke="#ffc391" stroke-width="30.687975" stroke-linecap="round"/><path d="M297.94 197.85L222.08 214.46" stroke="#9c623f" stroke-width="37.624700000000004" stroke-linecap="round"/><path d="M297.94 197.85L222.08 214.46" stroke="#ffd7ad" stroke-width="35.624700000000004" stroke-linecap="round"/><path d="M218.01 239.12L194.33 234.43" stroke="#9c623f" stroke-width="32.280995000000004" stroke-linecap="round"/><path d="M218.01 239.12L194.33 234.43" stroke="#ffd7ad" stroke-width="30.280995000000004" stroke-linecap="round"/><path d="M240.63 290.70L250.19 296.48" stroke="#9c623f" stroke-width="32.280995000000004" stroke-linecap="round"/><path d="M240.63 290.70L250.19 296.48" stroke="#ffd7ad" stroke-width="30.280995000000004" stroke-linecap="round"/><path d="M224.18 272.91L236.89 282.27" stroke="#9c623f" stroke-width="32.280995000000004" stroke-linecap="round"/><path d="M224.18 272.91L236.89 282.27" stroke="#ffd7ad" stroke-width="30.280995000000004" stroke-linecap="round"/><path d="M304.56 230.02L226.22 251.46" stroke="#9c623f" stroke-width="37.624700000000004" stroke-linecap="round"/><path d="M304.56 230.02L226.22 251.46" stroke="#ffd7ad" stroke-width="35.624700000000004" stroke-linecap="round"/><path d="M271.70 123.53L270.25 97.73" stroke="#9c623f" stroke-width="32.280995000000004" stroke-linecap="round"/><path d="M271.70 123.53L270.25 97.73" stroke="#ffd7ad" stroke-width="30.280995000000004" stroke-linecap="round"/><path d="M226.22 251.46L224.18 272.91" stroke="#9c623f" stroke-width="32.280995000000004" stroke-linecap="round"/><path d="M226.22 251.46L224.18 272.91" stroke="#ffd7ad" stroke-width="30.280995000000004" stroke-linecap="round"/><path d="M245.62 276.00L240.63 290.70" stroke="#9c623f" stroke-width="32.280995000000004" stroke-linecap="round"/><path d="M245.62 276.00L240.63 290.70" stroke="#ffd7ad" stroke-width="30.280995000000004" stroke-linecap="round"/><path d="M305.30 263.99L245.62 276.00" stroke="#9c623f" stroke-width="37.624700000000004" stroke-linecap="round"/><path d="M305.30 263.99L245.62 276.00" stroke="#ffd7ad" stroke-width="35.624700000000004" stroke-linecap="round"/><path d="M222.08 214.46L210.82 243.37" stroke="#9c623f" stroke-width="32.280995000000004" stroke-linecap="round"/><path d="M222.08 214.46L210.82 243.37" stroke="#ffd7ad" stroke-width="30.280995000000004" stroke-linecap="round"/><path d="M210.82 243.37L220.17 259.07" stroke="#9c623f" stroke-width="32.280995000000004" stroke-linecap="round"/><path d="M210.82 243.37L220.17 259.07" stroke="#ffd7ad" stroke-width="30.280995000000004" stroke-linecap="round"/><path d="M270.25 97.73L272.40 79.84" stroke="#9c623f" stroke-width="32.280995000000004" stroke-linecap="round"/><path d="M270.25 97.73L272.40 79.84" stroke="#ffd7ad" stroke-width="30.280995000000004" stroke-linecap="round"/><text x="24" y="37" font-family="sans-serif" font-size="24" font-weight="bold" fill="#075d48">F</text><text x="240" y="378" text-anchor="middle" font-family="sans-serif" font-size="13" fill="#375a4b">Contoh bentuk • karakter orisinal HANDSIGN</text></svg>