<svg xmlns="http://www.w3.org/2000/svg" viewBox="0 0 480 390" role="img" aria-labelledby="title"><title id="title">Karakter tangan HANDSIGN, contoh bentuk N</title><rect width="480" height="390" rx="24" fill="#f0fbf5"/><ellipse cx="240" cy="349" rx="125" ry="14" fill="#d8eade"/><path d="M215.64 312.00L197.67 274.64" stroke="#9c623f" stroke-width="22.662200000000002" stroke-linecap="round"/><path d="M215.64 312.00L197.67 274.64" stroke="#ffc391" stroke-width="20.662200000000002" stroke-linecap="round"/><path d="M197.67 274.64L204.26 239.96" stroke="#9c623f" stroke-width="22.662200000000002" stroke-linecap="round"/><path d="M197.67 274.64L204.26 239.96" stroke="#ffc391" stroke-width="20.662200000000002" stroke-linecap="round"/><path d="M265.71 202.97L238.43 192.93" stroke="#9c623f" stroke-width="24.17024" stroke-linecap="round"/><path d="M265.71 202.97L238.43 192.93" stroke="#ffd7ad" stroke-width="22.17024" stroke-linecap="round"/><path d="M204.26 239.96L229.67 222.86" stroke="#9c623f" stroke-width="19.56287" stroke-linecap="round"/><path d="M204.26 239.96L229.67 222.86" stroke="#ffc391" stroke-width="17.56287" stroke-linecap="round"/><path d="M262.65 253.55L255.82 261.17" stroke="#9c623f" stroke-width="19.56287" stroke-linecap="round"/><path d="M262.65 253.55L255.82 261.17" stroke="#ffc391" stroke-width="17.56287" stroke-linecap="round"/><path d="M229.67 222.86L247.88 220.83" stroke="#9c623f" stroke-width="19.56287" stroke-linecap="round"/><path d="M229.67 222.86L247.88 220.83" stroke="#ffc391" stroke-width="17.56287" stroke-linecap="round"/><polygon points="215.64,312.00 197.67,274.64 235.93,238.82 257.05,250.92 270.25,265.57 277.22,279.18" fill="#ffc391" stroke="#9c623f" stroke-width="2" stroke-linejoin="round"/><path d="M272.97 253.60L262.65 253.55" stroke="#9c623f" stroke-width="19.56287" stroke-linecap="round"/><path d="M272.97 253.60L262.65 253.55" stroke="#ffc391" stroke-width="17.56287" stroke-linecap="round"/><polygon points="265.71,202.97 238.43,192.93 237.70,128.54 258.62,124.11 277.87,129.04 295.34,140.44" fill="#ffd7ad" stroke="#9c623f" stroke-width="2" stroke-linejoin="round"/><path d="M277.22 279.18L272.97 253.60" stroke="#9c623f" stroke-width="22.662200000000002" stroke-linecap="round"/><path d="M277.22 279.18L272.97 253.60" stroke="#ffc391" stroke-width="20.662200000000002" stroke-linecap="round"/><path d="M259.56 236.36L250.56 244.90" stroke="#9c623f" stroke-width="19.56287" stroke-linecap="round"/><path d="M259.56 236.36L250.56 244.90" stroke="#ffc391" stroke-width="17.56287" stroke-linecap="round"/><rect x="248.71" y="204.97" width="34" height="24" rx="9" fill="#007857"/><circle cx="259.71" cy="213.97" r="2.5" fill="white"/><circle cx="271.71" cy="213.97" r="2.5" fill="white"/><path d="M260.71 219.97q5 4 10 0" fill="none" stroke="white" stroke-width="2"/><rect x="198.64" y="314.00" width="34" height="24" rx="9" fill="#007857"/><circle cx="209.64" cy="323.00" r="2.5" fill="white"/><circle cx="221.64" cy="323.00" r="2.5" fill="white"/><path d="M210.64 329.00q5 4 10 0" fill="none" stroke="white" stroke-width="2"/><path d="M270.25 265.57L271.46 235.08" stroke="#9c623f" stroke-width="22.662200000000002" stroke-linecap="round"/><path d="M270.25 265.57L271.46 235.08" stroke="#ffc391" stroke-width="20.662200000000002" stroke-linecap="round"/><path d="M271.46 235.08L259.56 236.36" stroke="#9c623f" stroke-width="19.56287" stroke-linecap="round"/><path d="M271.46 235.08L259.56 236.36" stroke="#ffc391" stroke-width="17.56287" stroke-linecap="round"/><path d="M257.05 250.92L272.65 205.10" stroke="#9c623f" stroke-width="22.662200000000002" stroke-linecap="round"/><path d="M257.05 250.92L272.65 205.10" stroke="#ffc391" stroke-width="20.662200000000002" stroke-linecap="round"/><path d="M235.93 238.82L242.37 196.71" stroke="#9c623f" stroke-width="22.662200000000002" stroke-linecap="round"/><path d="M235.93 238.82L242.37 196.71" stroke="#ffc391" stroke-width="20.662200000000002" stroke-linecap="round"/><path d="M277.87 129.04L278.62 96.36" stroke="#9c623f" stroke-width="24.17024" stroke-linecap="round"/><path d="M277.87 129.04L278.62 96.36" stroke="#ffd7ad" stroke-width="22.17024" stroke-linecap="round"/><path d="M258.62 124.11L257.02 89.73" stroke="#9c623f" stroke-width="24.17024" stroke-linecap="round"/><path d="M258.62 124.11L257.02 89.73" stroke="#ffd7ad" stroke-width="22.17024" stroke-linecap="round"/><path d="M238.43 192.93L213.72 174.07" stroke="#9c623f" stroke-width="24.17024" stroke-linecap="round"/><path d="M238.43 192.93L213.72 174.07" stroke="#ffd7ad" stroke-width="22.17024" stroke-linecap="round"/><path d="M295.34 140.44L302.62 114.99" stroke="#9c623f" stroke-width="24.17024" stroke-linecap="round"/><path d="M295.34 140.44L302.62 114.99" stroke="#ffd7ad" stroke-width="22.17024" stroke-linecap="round"/><path d="M237.70 128.54L226.11 97.83" stroke="#9c623f" stroke-width="24.17024" stroke-linecap="round"/><path d="M237.70 128.54L226.11 97.83" stroke="#ffd7ad" stroke-width="22.17024" stroke-linecap="round"/><path d="M272.65 205.10L282.32 179.08" stroke="#9c623f" stroke-width="19.56287" stroke-linecap="round"/><path d="M272.65 205.10L282.32 179.08" stroke="#ffc391" stroke-width="17.56287" stroke-linecap="round"/><path d="M282.32 179.08L292.01 162.21" stroke="#9c623f" stroke-width="19.56287" stroke-linecap="round"/><path d="M282.32 179.08L292.01 162.21" stroke="#ffc391" stroke-width="17.56287" stroke-linecap="round"/><path d="M242.37 196.71L244.14 174.12" stroke="#9c623f" stroke-width="19.56287" stroke-linecap="round"/><path d="M242.37 196.71L244.14 174.12" stroke="#ffc391" stroke-width="17.56287" stroke-linecap="round"/><path d="M244.14 174.12L246.38 157.29" stroke="#9c623f" stroke-width="19.56287" stroke-linecap="round"/><path d="M244.14 174.12L246.38 157.29" stroke="#ffc391" stroke-width="17.56287" stroke-linecap="round"/><path d="M302.62 114.99L306.12 97.88" stroke="#9c623f" stroke-width="20.844704" stroke-linecap="round"/><path d="M302.62 114.99L306.12 97.88" stroke="#ffd7ad" stroke-width="18.844704" stroke-linecap="round"/><path d="M278.62 96.36L279.58 75.71" stroke="#9c623f" stroke-width="20.844704" stroke-linecap="round"/><path d="M278.62 96.36L279.58 75.71" stroke="#ffd7ad" stroke-width="18.844704" stroke-linecap="round"/><path d="M257.02 89.73L257.82 67.49" stroke="#9c623f" stroke-width="20.844704" stroke-linecap="round"/><path d="M257.02 89.73L257.82 67.49" stroke="#ffd7ad" stroke-width="18.844704" stroke-linecap="round"/><path d="M306.12 97.88L307.01 82.78" stroke="#9c623f" stroke-width="20.844704" stroke-linecap="round"/><path d="M306.12 97.88L307.01 82.78" stroke="#ffd7ad" stroke-width="18.844704" stroke-linecap="round"/><path d="M226.11 97.83L221.27 77.37" stroke="#9c623f" stroke-width="20.844704" stroke-linecap="round"/><path d="M226.11 97.83L221.27 77.37" stroke="#ffd7ad" stroke-width="18.844704" stroke-linecap="round"/><path d="M213.72 174.07L191.83 156.19" stroke="#9c623f" stroke-width="20.844704" stroke-linecap="round"/><path d="M213.72 174.07L191.83 156.19" stroke="#ffd7ad" stroke-width="18.844704" stroke-linecap="round"/><path d="M279.58 75.71L279.89 59.45" stroke="#9c623f" stroke-width="20.844704" stroke-linecap="round"/><path d="M279.58 75.71L279.89 59.45" stroke="#ffd7ad" stroke-width="18.844704" stroke-linecap="round"/><path d="M257.82 67.49L259.54 51.00" stroke="#9c623f" stroke-width="20.844704" stroke-linecap="round"/><path d="M257.82 67.49L259.54 51.00" stroke="#ffd7ad" stroke-width="18.844704" stroke-linecap="round"/><path d="M221.27 77.37L218.48 61.15" stroke="#9c623f" stroke-width="20.844704" stroke-linecap="round"/><path d="M221.27 77.37L218.48 61.15" stroke="#ffd7ad" stroke-width="18.844704" stroke-linecap="round"/><path d="M191.83 156.19L172.99 144.65" stroke="#9c623f" stroke-width="20.844704" stroke-linecap="round"/><path d="M191.83 156.19L172.99 144.65" stroke="#ffd7ad" stroke-width="18.844704" stroke-linecap="round"/><text x="24" y="37" font-family="sans-serif" font-size="24" font-weight="bold" fill="#075d48">N</text><text x="240" y="378" text-anchor="middle" font-family="sans-serif" font-size="13" fill="#375a4b">Contoh bentuk • karakter orisinal HANDSIGN</text></svg>