<svg xmlns="http://www.w3.org/2000/svg" viewBox="0 0 480 390" role="img" aria-labelledby="title"><title id="title">Karakter tangan Sinyal, contoh bentuk P</title><rect width="480" height="390" rx="24" fill="#f0fbf5"/><ellipse cx="240" cy="349" rx="125" ry="14" fill="#d8eade"/><path d="M194.68 69.55L233.42 53.51" stroke="#9c623f" stroke-width="32.49704" stroke-linecap="round"/><path d="M194.68 69.55L233.42 53.51" stroke="#ffc391" stroke-width="30.49704" stroke-linecap="round"/><path d="M233.42 53.51L257.11 54.00" stroke="#9c623f" stroke-width="27.922483999999997" stroke-linecap="round"/><path d="M233.42 53.51L257.11 54.00" stroke="#ffc391" stroke-width="25.922483999999997" stroke-linecap="round"/><path d="M257.11 54.00L270.54 51.00" stroke="#9c623f" stroke-width="27.922483999999997" stroke-linecap="round"/><path d="M257.11 54.00L270.54 51.00" stroke="#ffc391" stroke-width="25.922483999999997" stroke-linecap="round"/><path d="M191.41 59.90L234.01 66.42" stroke="#9c623f" stroke-width="32.49704" stroke-linecap="round"/><path d="M191.41 59.90L234.01 66.42" stroke="#ffc391" stroke-width="30.49704" stroke-linecap="round"/><path d="M210.62 133.48L242.13 123.48" stroke="#9c623f" stroke-width="27.922483999999997" stroke-linecap="round"/><path d="M210.62 133.48L242.13 123.48" stroke="#ffc391" stroke-width="25.922483999999997" stroke-linecap="round"/><polygon points="123.24,144.85 172.26,150.68 194.68,69.55 191.41,59.90 189.79,57.14 191.88,58.05" fill="#ffc391" stroke="#9c623f" stroke-width="2" stroke-linejoin="round"/><path d="M242.13 123.48L268.45 114.42" stroke="#9c623f" stroke-width="27.922483999999997" stroke-linecap="round"/><path d="M242.13 123.48L268.45 114.42" stroke="#ffc391" stroke-width="25.922483999999997" stroke-linecap="round"/><path d="M234.01 66.42L229.65 82.52" stroke="#9c623f" stroke-width="27.922483999999997" stroke-linecap="round"/><path d="M234.01 66.42L229.65 82.52" stroke="#ffc391" stroke-width="25.922483999999997" stroke-linecap="round"/><path d="M172.26 150.68L210.62 133.48" stroke="#9c623f" stroke-width="32.49704" stroke-linecap="round"/><path d="M172.26 150.68L210.62 133.48" stroke="#ffc391" stroke-width="30.49704" stroke-linecap="round"/><path d="M189.79 57.14L243.90 63.71" stroke="#9c623f" stroke-width="32.49704" stroke-linecap="round"/><path d="M189.79 57.14L243.90 63.71" stroke="#ffc391" stroke-width="30.49704" stroke-linecap="round"/><path d="M229.65 82.52L215.46 80.86" stroke="#9c623f" stroke-width="27.922483999999997" stroke-linecap="round"/><path d="M229.65 82.52L215.46 80.86" stroke="#ffc391" stroke-width="25.922483999999997" stroke-linecap="round"/><path d="M123.24 144.85L172.26 150.68" stroke="#9c623f" stroke-width="32.49704" stroke-linecap="round"/><path d="M123.24 144.85L172.26 150.68" stroke="#ffc391" stroke-width="30.49704" stroke-linecap="round"/><path d="M231.87 88.06L213.65 96.04" stroke="#9c623f" stroke-width="27.922483999999997" stroke-linecap="round"/><path d="M231.87 88.06L213.65 96.04" stroke="#ffc391" stroke-width="25.922483999999997" stroke-linecap="round"/><path d="M243.90 63.71L241.99 80.11" stroke="#9c623f" stroke-width="27.922483999999997" stroke-linecap="round"/><path d="M243.90 63.71L241.99 80.11" stroke="#ffc391" stroke-width="25.922483999999997" stroke-linecap="round"/><path d="M191.88 58.05L238.78 68.41" stroke="#9c623f" stroke-width="32.49704" stroke-linecap="round"/><path d="M191.88 58.05L238.78 68.41" stroke="#ffc391" stroke-width="30.49704" stroke-linecap="round"/><path d="M241.99 80.11L232.03 78.16" stroke="#9c623f" stroke-width="27.922483999999997" stroke-linecap="round"/><path d="M241.99 80.11L232.03 78.16" stroke="#ffc391" stroke-width="25.922483999999997" stroke-linecap="round"/><path d="M238.78 68.41L231.87 88.06" stroke="#9c623f" stroke-width="27.922483999999997" stroke-linecap="round"/><path d="M238.78 68.41L231.87 88.06" stroke="#ffc391" stroke-width="25.922483999999997" stroke-linecap="round"/><path d="M329.89 312.00L284.94 277.42" stroke="#9c623f" stroke-width="38.1521" stroke-linecap="round"/><path d="M329.89 312.00L284.94 277.42" stroke="#ffd7ad" stroke-width="36.1521" stroke-linecap="round"/><rect x="106.24" y="146.85" width="34" height="24" rx="9" fill="#007857"/><circle cx="117.24" cy="155.85" r="2.5" fill="white"/><circle cx="129.24" cy="155.85" r="2.5" fill="white"/><path d="M118.24 161.85q5 4 10 0" fill="none" stroke="white" stroke-width="2"/><rect x="312.89" y="314.00" width="34" height="24" rx="9" fill="#007857"/><circle cx="323.89" cy="323.00" r="2.5" fill="white"/><circle cx="335.89" cy="323.00" r="2.5" fill="white"/><path d="M324.89 329.00q5 4 10 0" fill="none" stroke="white" stroke-width="2"/><path d="M284.94 277.42L258.55 243.44" stroke="#9c623f" stroke-width="38.1521" stroke-linecap="round"/><path d="M284.94 277.42L258.55 243.44" stroke="#ffd7ad" stroke-width="36.1521" stroke-linecap="round"/><polygon points="329.89,312.00 284.94,277.42 300.65,175.77 328.75,182.89 347.07,201.39 356.76,224.63" fill="#ffd7ad" stroke="#9c623f" stroke-width="2" stroke-linejoin="round"/><path d="M279.36 235.35L295.19 244.24" stroke="#9c623f" stroke-width="32.729285" stroke-linecap="round"/><path d="M279.36 235.35L295.19 244.24" stroke="#ffd7ad" stroke-width="30.729284999999997" stroke-linecap="round"/><path d="M300.65 175.77L297.22 115.27" stroke="#9c623f" stroke-width="38.1521" stroke-linecap="round"/><path d="M300.65 175.77L297.22 115.27" stroke="#ffd7ad" stroke-width="36.1521" stroke-linecap="round"/><path d="M328.75 182.89L272.01 178.67" stroke="#9c623f" stroke-width="38.1521" stroke-linecap="round"/><path d="M328.75 182.89L272.01 178.67" stroke="#ffd7ad" stroke-width="36.1521" stroke-linecap="round"/><path d="M258.55 243.44L245.01 215.37" stroke="#9c623f" stroke-width="32.729285" stroke-linecap="round"/><path d="M258.55 243.44L245.01 215.37" stroke="#ffd7ad" stroke-width="30.729284999999997" stroke-linecap="round"/><path d="M299.16 246.68L314.53 254.51" stroke="#9c623f" stroke-width="32.729285" stroke-linecap="round"/><path d="M299.16 246.68L314.53 254.51" stroke="#ffd7ad" stroke-width="30.729284999999997" stroke-linecap="round"/><path d="M347.07 201.39L283.92 202.85" stroke="#9c623f" stroke-width="38.1521" stroke-linecap="round"/><path d="M347.07 201.39L283.92 202.85" stroke="#ffd7ad" stroke-width="36.1521" stroke-linecap="round"/><path d="M283.92 202.85L279.36 235.35" stroke="#9c623f" stroke-width="32.729285" stroke-linecap="round"/><path d="M283.92 202.85L279.36 235.35" stroke="#ffd7ad" stroke-width="30.729284999999997" stroke-linecap="round"/><path d="M356.76 224.63L303.42 224.82" stroke="#9c623f" stroke-width="38.1521" stroke-linecap="round"/><path d="M356.76 224.63L303.42 224.82" stroke="#ffd7ad" stroke-width="36.1521" stroke-linecap="round"/><path d="M260.18 217.99L275.01 231.23" stroke="#9c623f" stroke-width="32.729285" stroke-linecap="round"/><path d="M260.18 217.99L275.01 231.23" stroke="#ffd7ad" stroke-width="30.729284999999997" stroke-linecap="round"/><path d="M303.42 224.82L299.16 246.68" stroke="#9c623f" stroke-width="32.729285" stroke-linecap="round"/><path d="M303.42 224.82L299.16 246.68" stroke="#ffd7ad" stroke-width="30.729284999999997" stroke-linecap="round"/><path d="M272.01 178.67L260.18 217.99" stroke="#9c623f" stroke-width="32.729285" stroke-linecap="round"/><path d="M272.01 178.67L260.18 217.99" stroke="#ffd7ad" stroke-width="30.729284999999997" stroke-linecap="round"/><path d="M297.22 115.27L287.85 78.47" stroke="#9c623f" stroke-width="32.729285" stroke-linecap="round"/><path d="M297.22 115.27L287.85 78.47" stroke="#ffd7ad" stroke-width="30.729284999999997" stroke-linecap="round"/><path d="M245.01 215.37L251.69 192.05" stroke="#9c623f" stroke-width="32.729285" stroke-linecap="round"/><path d="M245.01 215.37L251.69 192.05" stroke="#ffd7ad" stroke-width="30.729284999999997" stroke-linecap="round"/><path d="M287.85 78.47L278.80 53.81" stroke="#9c623f" stroke-width="32.729285" stroke-linecap="round"/><path d="M287.85 78.47L278.80 53.81" stroke="#ffd7ad" stroke-width="30.729284999999997" stroke-linecap="round"/><text x="24" y="37" font-family="sans-serif" font-size="24" font-weight="bold" fill="#075d48">P</text><text x="240" y="378" text-anchor="middle" font-family="sans-serif" font-size="13" fill="#375a4b">Contoh bentuk • karakter orisinal Sinyal</text></svg>