<svg xmlns="http://www.w3.org/2000/svg" viewBox="0 0 480 390" role="img" aria-labelledby="title"><title id="title">Karakter tangan Sinyal, contoh bentuk T</title><rect width="480" height="390" rx="24" fill="#f0fbf5"/><ellipse cx="240" cy="349" rx="125" ry="14" fill="#d8eade"/><path d="M162.41 65.60L207.99 85.12" stroke="#9c623f" stroke-width="36.19154" stroke-linecap="round"/><path d="M162.41 65.60L207.99 85.12" stroke="#ffc391" stroke-width="34.19154" stroke-linecap="round"/><path d="M115.44 62.90L162.41 65.60" stroke="#9c623f" stroke-width="36.19154" stroke-linecap="round"/><path d="M115.44 62.90L162.41 65.60" stroke="#ffc391" stroke-width="34.19154" stroke-linecap="round"/><path d="M207.99 85.12L234.82 113.37" stroke="#9c623f" stroke-width="31.062809" stroke-linecap="round"/><path d="M207.99 85.12L234.82 113.37" stroke="#ffc391" stroke-width="29.062809" stroke-linecap="round"/><path d="M364.56 312.00L316.39 274.94" stroke="#9c623f" stroke-width="36.47378" stroke-linecap="round"/><path d="M364.56 312.00L316.39 274.94" stroke="#ffd7ad" stroke-width="34.47378" stroke-linecap="round"/><path d="M234.82 113.37L251.77 137.16" stroke="#9c623f" stroke-width="31.062809" stroke-linecap="round"/><path d="M234.82 113.37L251.77 137.16" stroke="#ffc391" stroke-width="29.062809" stroke-linecap="round"/><path d="M243.45 51.00L294.69 58.88" stroke="#9c623f" stroke-width="36.19154" stroke-linecap="round"/><path d="M243.45 51.00L294.69 58.88" stroke="#ffc391" stroke-width="34.19154" stroke-linecap="round"/><path d="M316.39 274.94L290.85 244.79" stroke="#9c623f" stroke-width="36.47378" stroke-linecap="round"/><path d="M316.39 274.94L290.85 244.79" stroke="#ffd7ad" stroke-width="34.47378" stroke-linecap="round"/><rect x="98.44" y="64.90" width="34" height="24" rx="9" fill="#007857"/><circle cx="109.44" cy="73.90" r="2.5" fill="white"/><circle cx="121.44" cy="73.90" r="2.5" fill="white"/><path d="M110.44 79.90q5 4 10 0" fill="none" stroke="white" stroke-width="2"/><rect x="347.56" y="314.00" width="34" height="24" rx="9" fill="#007857"/><circle cx="358.56" cy="323.00" r="2.5" fill="white"/><circle cx="370.56" cy="323.00" r="2.5" fill="white"/><path d="M359.56 329.00q5 4 10 0" fill="none" stroke="white" stroke-width="2"/><polygon points="115.44,62.90 162.41,65.60 243.45,51.00 237.28,54.63 223.30,66.16 207.96,82.75" fill="#ffc391" stroke="#9c623f" stroke-width="2" stroke-linejoin="round"/><path d="M294.69 58.88L327.24 58.07" stroke="#9c623f" stroke-width="31.062809" stroke-linecap="round"/><path d="M294.69 58.88L327.24 58.07" stroke="#ffc391" stroke-width="29.062809" stroke-linecap="round"/><path d="M237.28 54.63L264.40 115.15" stroke="#9c623f" stroke-width="36.19154" stroke-linecap="round"/><path d="M237.28 54.63L264.40 115.15" stroke="#ffc391" stroke-width="34.19154" stroke-linecap="round"/><polygon points="364.56,312.00 316.39,274.94 327.53,182.77 345.72,190.33 352.35,209.59 350.44,231.51" fill="#ffd7ad" stroke="#9c623f" stroke-width="2" stroke-linejoin="round"/><path d="M290.85 244.79L272.30 224.60" stroke="#9c623f" stroke-width="31.302712999999997" stroke-linecap="round"/><path d="M290.85 244.79L272.30 224.60" stroke="#ffd7ad" stroke-width="29.302712999999997" stroke-linecap="round"/><path d="M219.82 131.14L206.84 121.39" stroke="#9c623f" stroke-width="31.062809" stroke-linecap="round"/><path d="M219.82 131.14L206.84 121.39" stroke="#ffc391" stroke-width="29.062809" stroke-linecap="round"/><path d="M327.24 58.07L354.16 54.70" stroke="#9c623f" stroke-width="31.062809" stroke-linecap="round"/><path d="M327.24 58.07L354.16 54.70" stroke="#ffc391" stroke-width="29.062809" stroke-linecap="round"/><path d="M327.53 182.77L313.79 132.06" stroke="#9c623f" stroke-width="36.47378" stroke-linecap="round"/><path d="M327.53 182.77L313.79 132.06" stroke="#ffd7ad" stroke-width="34.47378" stroke-linecap="round"/><path d="M209.78 132.61L197.30 126.34" stroke="#9c623f" stroke-width="31.062809" stroke-linecap="round"/><path d="M209.78 132.61L197.30 126.34" stroke="#ffc391" stroke-width="29.062809" stroke-linecap="round"/><path d="M240.82 124.29L225.83 117.67" stroke="#9c623f" stroke-width="31.062809" stroke-linecap="round"/><path d="M240.82 124.29L225.83 117.67" stroke="#ffc391" stroke-width="29.062809" stroke-linecap="round"/><path d="M264.40 115.15L240.82 124.29" stroke="#9c623f" stroke-width="31.062809" stroke-linecap="round"/><path d="M264.40 115.15L240.82 124.29" stroke="#ffc391" stroke-width="29.062809" stroke-linecap="round"/><path d="M287.28 240.76L302.36 249.40" stroke="#9c623f" stroke-width="31.302712999999997" stroke-linecap="round"/><path d="M287.28 240.76L302.36 249.40" stroke="#ffd7ad" stroke-width="29.302712999999997" stroke-linecap="round"/><path d="M242.57 126.72L219.82 131.14" stroke="#9c623f" stroke-width="31.062809" stroke-linecap="round"/><path d="M242.57 126.72L219.82 131.14" stroke="#ffc391" stroke-width="29.062809" stroke-linecap="round"/><path d="M223.30 66.16L242.57 126.72" stroke="#9c623f" stroke-width="36.19154" stroke-linecap="round"/><path d="M223.30 66.16L242.57 126.72" stroke="#ffc391" stroke-width="34.19154" stroke-linecap="round"/><path d="M345.72 190.33L280.78 191.81" stroke="#9c623f" stroke-width="36.47378" stroke-linecap="round"/><path d="M345.72 190.33L280.78 191.81" stroke="#ffd7ad" stroke-width="34.47378" stroke-linecap="round"/><path d="M227.46 127.13L209.78 132.61" stroke="#9c623f" stroke-width="31.062809" stroke-linecap="round"/><path d="M227.46 127.13L209.78 132.61" stroke="#ffc391" stroke-width="29.062809" stroke-linecap="round"/><path d="M352.35 209.59L286.77 216.97" stroke="#9c623f" stroke-width="36.47378" stroke-linecap="round"/><path d="M352.35 209.59L286.77 216.97" stroke="#ffd7ad" stroke-width="34.47378" stroke-linecap="round"/><path d="M296.39 253.56L308.24 259.30" stroke="#9c623f" stroke-width="31.302712999999997" stroke-linecap="round"/><path d="M296.39 253.56L308.24 259.30" stroke="#ffd7ad" stroke-width="29.302712999999997" stroke-linecap="round"/><path d="M286.77 216.97L287.28 240.76" stroke="#9c623f" stroke-width="31.302712999999997" stroke-linecap="round"/><path d="M286.77 216.97L287.28 240.76" stroke="#ffd7ad" stroke-width="29.302712999999997" stroke-linecap="round"/><path d="M313.79 132.06L305.31 102.15" stroke="#9c623f" stroke-width="31.302712999999997" stroke-linecap="round"/><path d="M313.79 132.06L305.31 102.15" stroke="#ffd7ad" stroke-width="29.302712999999997" stroke-linecap="round"/><path d="M272.30 224.60L262.36 214.01" stroke="#9c623f" stroke-width="31.302712999999997" stroke-linecap="round"/><path d="M272.30 224.60L262.36 214.01" stroke="#ffd7ad" stroke-width="29.302712999999997" stroke-linecap="round"/><path d="M207.96 82.75L227.46 127.13" stroke="#9c623f" stroke-width="36.19154" stroke-linecap="round"/><path d="M207.96 82.75L227.46 127.13" stroke="#ffc391" stroke-width="34.19154" stroke-linecap="round"/><path d="M280.78 191.81L275.40 222.70" stroke="#9c623f" stroke-width="31.302712999999997" stroke-linecap="round"/><path d="M280.78 191.81L275.40 222.70" stroke="#ffd7ad" stroke-width="29.302712999999997" stroke-linecap="round"/><path d="M275.40 222.70L289.25 237.90" stroke="#9c623f" stroke-width="31.302712999999997" stroke-linecap="round"/><path d="M275.40 222.70L289.25 237.90" stroke="#ffd7ad" stroke-width="29.302712999999997" stroke-linecap="round"/><path d="M298.51 237.26L296.39 253.56" stroke="#9c623f" stroke-width="31.302712999999997" stroke-linecap="round"/><path d="M298.51 237.26L296.39 253.56" stroke="#ffd7ad" stroke-width="29.302712999999997" stroke-linecap="round"/><path d="M350.44 231.51L298.51 237.26" stroke="#9c623f" stroke-width="36.47378" stroke-linecap="round"/><path d="M350.44 231.51L298.51 237.26" stroke="#ffd7ad" stroke-width="34.47378" stroke-linecap="round"/><path d="M305.31 102.15L299.64 76.87" stroke="#9c623f" stroke-width="31.302712999999997" stroke-linecap="round"/><path d="M305.31 102.15L299.64 76.87" stroke="#ffd7ad" stroke-width="29.302712999999997" stroke-linecap="round"/><text x="24" y="37" font-family="sans-serif" font-size="24" font-weight="bold" fill="#075d48">T</text><text x="240" y="378" text-anchor="middle" font-family="sans-serif" font-size="13" fill="#375a4b">Contoh bentuk • karakter orisinal Sinyal</text></svg>